<svg width="26" height="26" viewBox="0 0 26 26" fill="none"
  xmlns="http://www.w3.org/2000/svg">
  <path d="M24.9168 3.24997C23.8794 3.98174 22.7308 4.54142 21.5152 4.90747C20.8627 4.15727 19.9956 3.62555 19.0311 3.38422C18.0666 3.14289 17.0513 3.2036 16.1224 3.55813C15.1935 3.91266 14.396 4.5439 13.8376 5.36649C13.2791 6.18909 12.9868 7.16333 13.0002 8.15747V9.2408C11.0963 9.29017 9.20988 8.86793 7.50876 8.0117C5.80763 7.15547 4.34467 5.89182 3.25016 4.3333C3.25016 4.3333 -1.08317 14.0833 8.66683 18.4166C6.43573 19.9311 3.77792 20.6905 1.0835 20.5833C10.8335 26 22.7502 20.5833 22.7502 8.12497C22.7492 7.82321 22.7202 7.5222 22.6635 7.2258C23.7691 6.13542 24.5494 4.75874 24.9168 3.24997V3.24997Z" stroke="white" stroke-width="2" stroke-linecap="round" stroke-linejoin="round"/>
</svg>
